<?xml version="1.0" encoding="UTF-8"?>
<svg version="1.1" xmlns="http://www.w3.org/2000/svg" width="720" height="720">
<path d="M0 0 C2.72417385 -0.01597926 5.44831484 -0.02680452 8.17251968 -0.03578568 C8.94964467 -0.04085664 9.72676966 -0.0459276 10.52744389 -0.05115223 C40.05240566 -0.10133328 68.07513081 12.04097011 89.16983414 32.58115768 C105.66398516 49.33216979 116.82203805 70.1189068 122.04483414 93.01865768 C122.32194229 94.2199028 122.32194229 94.2199028 122.60464859 95.4454155 C124.21631755 103.22094854 124.39225175 110.84635073 124.35733414 118.76865768 C124.35517899 119.43262558 124.35302383 120.09659348 124.35080338 120.78068161 C124.14440011 160.37550907 102.2747386 191.87371392 75.04483414 219.01865768 C74.33584976 219.77404831 73.62686539 220.52943893 72.89639664 221.30772018 C62.50506624 232.2095019 50.04579293 240.51215171 37.04483414 248.01865768 C35.92077164 248.6747905 34.79670914 249.33092331 33.63858414 250.00693893 C-17.56053634 279.05808566 -77.99702061 277.38616331 -133.36800766 262.58701706 C-136.16482978 261.87561226 -136.16482978 261.87561226 -139.95516586 262.01865768 C-140.305952 262.65029831 -140.65673813 263.28193893 -141.01815414 263.93272018 C-148.07572362 276.62582861 -155.21660823 289.2582983 -162.56332016 301.78672409 C-167.0583766 309.45963168 -171.48876653 317.16819574 -175.89266586 324.89365768 C-181.66709116 335.02190451 -187.47407705 345.13069216 -193.30819321 355.22471237 C-197.56253767 362.59087605 -201.78865641 369.97277957 -206.00204086 377.36240768 C-211.83385418 387.59051104 -217.72018816 397.78455784 -223.66854477 407.9454155 C-228.80528917 416.73260131 -233.8561791 425.56795191 -238.89754868 434.41001511 C-245.34969885 445.72449449 -251.85776896 457.00622164 -258.37801743 468.28159714 C-260.245466 471.52245874 -262.0994107 474.77108615 -263.95516586 478.01865768 C-274.18516586 478.01865768 -284.41516586 478.01865768 -294.95516586 478.01865768 C-293.50394133 474.39059635 -292.07972401 471.27636984 -290.18954086 467.90537643 C-289.63669418 466.91755173 -289.0838475 465.92972702 -288.51424789 464.91196823 C-287.91725082 463.85405075 -287.32025375 462.79613327 -286.70516586 461.70615768 C-285.76906479 460.04097092 -285.76906479 460.04097092 -284.81405258 458.34214401 C-280.06985727 449.92992222 -275.2283741 441.5767087 -270.34432602 433.24497604 C-265.87398067 425.61396167 -261.46271006 417.95032654 -257.08016586 410.26865768 C-256.74746689 409.6856691 -256.41476791 409.10268051 -256.07198715 408.5020256 C-253.69815251 404.3417922 -251.32640192 400.18037263 -248.95516586 396.01865768 C-246.2482721 391.26783576 -243.5404624 386.51753935 -240.83016586 381.76865768 C-240.49712448 381.18507492 -240.1640831 380.60149216 -239.82094955 380.00022507 C-234.6816392 370.99887001 -229.47805295 362.03652578 -224.24154282 353.09141159 C-219.44081188 344.8792244 -214.71367318 336.6258859 -210.00204086 328.36240768 C-205.17724008 319.90044939 -200.3293204 311.45232076 -195.45516586 303.01865768 C-190.43305787 294.32449228 -185.4241823 285.62291852 -180.43807602 276.90806198 C-179.4288516 275.14439399 -178.41859044 273.38131938 -177.40829086 271.61826706 C-173.50825352 264.79521203 -169.68838335 257.93443224 -165.95516586 251.01865768 C-166.66833969 250.68769089 -167.38151352 250.35672409 -168.11629868 250.015728 C-181.46889118 243.78737586 -194.53207501 237.46699538 -207.03622055 229.62705612 C-207.79451157 229.15171432 -208.55280258 228.67637253 -209.33407211 228.18662643 C-209.98964096 227.76663376 -210.64520981 227.34664108 -211.32064438 226.91392136 C-212.93691176 225.85852962 -212.93691176 225.85852962 -214.95516586 226.01865768 C-215.305952 226.65029831 -215.65673813 227.28193893 -216.01815414 227.93272018 C-223.07572362 240.62582861 -230.21660823 253.2582983 -237.56332016 265.78672409 C-242.0583766 273.45963168 -246.48876653 281.16819574 -250.89266586 288.89365768 C-256.66709116 299.02190451 -262.47407705 309.13069216 -268.30819321 319.22471237 C-272.56253767 326.59087605 -276.78865641 333.97277957 -281.00204086 341.36240768 C-286.83385418 351.59051104 -292.72018816 361.78455784 -298.66854477 371.9454155 C-303.46928183 380.15780943 -308.19656844 388.41127143 -312.90829086 396.67490768 C-318.34076892 406.20263843 -323.80791257 415.70980378 -329.29720688 425.20493698 C-332.94752352 431.52410586 -336.58496059 437.85026455 -340.18719101 444.19697189 C-341.91244119 447.23432909 -343.65137176 450.26160303 -345.42733383 453.26963425 C-348.27768178 458.1320332 -351.01007546 462.79722169 -352.90829086 468.11631393 C-355.93538602 476.01308392 -355.93538602 476.01308392 -359.95516586 478.01865768 C-369.82991532 479.77621407 -380.02835242 478.92362665 -389.95516586 478.01865768 C-389.36717292 474.07019868 -388.1598009 471.25749351 -386.13875961 467.82725143 C-385.25220688 466.30841354 -385.25220688 466.30841354 -384.34774399 464.75889206 C-383.37998032 463.12403854 -383.37998032 463.12403854 -382.39266586 461.45615768 C-381.71539414 460.29974786 -381.03897834 459.14283638 -380.36336899 457.98545456 C-379.30553736 456.17337048 -378.24724884 454.361574 -377.18645859 452.55121994 C-373.72882617 446.64843684 -370.33492815 440.71015986 -366.95003891 434.76545334 C-358.39510312 419.74471807 -349.74993966 404.77622835 -341.10067368 389.80967331 C-334.02386797 377.56207164 -326.96640139 365.3039065 -319.95516586 353.01865768 C-311.71919527 338.5873998 -303.41467718 324.19609539 -295.10067368 309.80967331 C-293.23913914 306.58797493 -291.37817747 303.3659469 -289.51766586 300.14365768 C-288.90213852 299.077603 -288.28661118 298.01154831 -287.65243149 296.91318893 C-283.38290251 289.5114873 -279.13991212 282.09501376 -274.90700912 274.67234421 C-269.05993295 264.41929085 -263.16533336 254.19581017 -257.20443344 244.00840378 C-252.63422784 236.1949748 -248.10057138 228.36096105 -243.58016586 220.51865768 C-243.24475784 219.93678696 -242.90934982 219.35491623 -242.56377792 218.75541306 C-240.69343329 215.5102926 -238.82392632 212.26469065 -236.95516586 209.01865768 C-240.60228702 205.2764533 -244.40589636 201.83139396 -248.39266586 198.45615768 C-249.63754575 197.39636547 -250.8823348 196.33646655 -252.12704086 195.27647018 C-252.76061508 194.73796432 -253.3941893 194.19945847 -254.04696274 193.64463425 C-255.90169211 192.06422257 -257.7499914 190.47667235 -259.59579086 188.88584518 C-264.81400919 184.38999535 -270.04153485 179.91905679 -275.39266586 175.58115768 C-280.49458343 171.44101545 -285.44671504 167.14320386 -290.39706039 162.82456589 C-294.13533933 159.57133794 -297.91442965 156.38612743 -301.76766586 153.26865768 C-306.12454839 149.741964 -310.2819249 146.04363679 -314.42391586 142.26865768 C-317.04361396 139.94003715 -319.73031896 137.72302821 -322.45516586 135.51865768 C-326.04994237 132.61052388 -329.53777214 129.63324437 -332.95516586 126.51865768 C-337.1753053 122.67673829 -341.53543771 119.05750547 -345.97079086 115.46787643 C-349.34277949 112.70055069 -352.65182032 109.86718829 -355.95516586 107.01865768 C-360.07972198 103.46398554 -364.22724898 99.95073139 -368.45516586 96.51865768 C-373.85879488 92.12919951 -379.13555042 87.6018296 -384.41219711 83.06162643 C-387.76659263 80.17635152 -391.13812457 77.31191355 -394.51766586 74.45615768 C-395.05061264 74.00571091 -395.58355942 73.55526413 -396.1326561 73.09116745 C-397.7398485 71.7332956 -399.34743105 70.37588726 -400.95516586 69.01865768 C-403.10149986 67.20674944 -405.24740323 65.39433431 -407.39266586 63.58115768 C-407.92496811 63.13135544 -408.45727036 62.68155319 -409.00570297 62.21812057 C-413.64699997 58.290762 -418.25545105 54.32572863 -422.86288071 50.35874557 C-426.36757889 47.35060326 -429.91784915 44.41314021 -433.51766586 41.51865768 C-437.81427037 38.02766652 -441.94106125 34.38640972 -446.01766586 30.64365768 C-446.85889999 29.87505417 -446.85889999 29.87505417 -447.71712875 29.09092331 C-453.75660186 23.48941661 -453.75660186 23.48941661 -454.29110336 19.53037643 C-454.37431583 13.5141153 -454.23467126 9.63601877 -449.95516586 5.01865768 C-446.47970503 1.87419312 -443.74309809 0.72005845 -439.14266586 0.45615768 C-427.9331371 1.02246374 -419.25646913 10.24271121 -410.95516586 17.01865768 C-410.26793442 17.57827194 -409.58070297 18.1378862 -408.87264633 18.71445847 C-400.00541027 25.9470318 -391.22590408 33.28089195 -382.51131821 40.69639206 C-380.9286837 42.04115963 -379.34286968 43.38207884 -377.75594711 44.72178268 C-372.09198914 49.50390123 -366.44927281 54.30889718 -360.83016586 59.14365768 C-356.76887841 62.63680875 -352.67997999 66.08314164 -348.51766586 69.45615768 C-342.82968477 74.0765998 -337.30951735 78.87934991 -331.78329086 83.69053268 C-328.16782299 86.83807347 -324.53436029 89.96402298 -320.89266586 93.08115768 C-320.03257919 93.81749435 -320.03257919 93.81749435 -319.15511703 94.56870651 C-317.99986068 95.55750972 -316.84450611 96.54619817 -315.68905258 97.53477097 C-313.36046426 99.5276124 -311.03346324 101.52230186 -308.70663071 103.51719284 C-307.5417753 104.51577951 -306.37673708 105.51415297 -305.21151352 106.51231003 C-302.25428064 109.04578046 -299.29969528 111.58223393 -296.34969711 114.12412643 C-291.11843175 118.62746467 -285.88027342 123.10895511 -280.51766586 127.45615768 C-276.05916466 131.07293594 -271.71779319 134.80736172 -267.39266586 138.58115768 C-262.58354447 142.77308161 -257.73179503 146.86991722 -252.71688461 150.81553268 C-249.80220553 153.14067979 -246.93488878 155.51700919 -244.06771469 157.90024948 C-235.55766865 164.9660044 -226.88934409 171.78052465 -218.05477524 178.43516159 C-215.94910727 180.02322699 -213.85015482 181.61984882 -211.75204086 183.21787643 C-204.58004281 188.66422364 -197.37654555 194.00729755 -189.77743149 198.85068893 C-188.42465043 199.71774475 -187.07790819 200.59423747 -185.73446274 201.47568893 C-158.86370758 219.07549829 -129.21813293 229.1413627 -97.95516586 236.01865768 C-97.15900864 236.1979985 -96.36285141 236.37733932 -95.54256821 236.56211472 C-54.83768575 245.4056566 -7.6792675 236.72167859 27.45889664 214.42490768 C42.45751728 204.55074787 56.20365947 192.33562881 67.04483414 178.01865768 C67.72030289 177.14725143 68.39577164 176.27584518 69.09170914 175.37803268 C86.36258661 152.48407883 93.66898248 128.84515918 90.64639664 100.24912643 C88.00273443 86.60164946 80.699907 73.71021828 72.04483414 63.01865768 C71.42608414 62.19494675 70.80733414 61.37123581 70.16983414 60.52256393 C56.65598973 44.59908184 34.14026592 36.39718115 14.04483414 34.01865768 C9.90896335 33.75779685 5.78851678 33.70820627 1.64517593 33.69981003 C0.48260269 33.6897644 -0.67997055 33.67971878 -1.87777328 33.66936874 C-5.67049346 33.63880061 -9.46314393 33.62157556 -13.25594711 33.60459518 C-15.90538642 33.58586226 -18.55480972 33.56638052 -21.20423508 33.54590988 C-27.43343741 33.49940458 -33.66265674 33.46252526 -39.8919422 33.42923701 C-46.99252592 33.39081403 -54.09302106 33.34145785 -61.19352973 33.29125285 C-75.78067337 33.18835403 -90.36788051 33.098959 -104.95516586 33.01865768 C-105.24762192 33.94017624 -105.54007797 34.86169479 -105.84139633 35.81113815 C-107.14456732 39.56411063 -109.02167063 42.77260132 -111.08016586 46.14365768 C-115.37204868 53.30350345 -119.55108984 60.52286987 -123.67922592 67.77811813 C-129.60512329 78.19259456 -135.59148892 88.56855431 -141.64754868 98.90806198 C-146.98437637 108.03464552 -152.22741806 117.21379801 -157.45125961 126.40537643 C-161.20265416 132.99524947 -165.01743148 139.53826148 -168.95516586 146.01865768 C-172.37569905 144.7591489 -175.2032745 143.32154157 -178.16219711 141.19834518 C-178.91307602 140.66338425 -179.66395493 140.12842331 -180.43758774 139.57725143 C-181.20651352 139.0216655 -181.9754393 138.46607956 -182.76766586 137.89365768 C-183.95005844 137.04867722 -183.95005844 137.04867722 -185.15633774 136.18662643 C-187.09263417 134.80188111 -189.02539227 133.41247141 -190.95516586 132.01865768 C-190.35950049 127.85280323 -188.95247081 124.87846266 -186.84969711 121.24912643 C-186.20323227 120.12570847 -185.55676743 119.0022905 -184.89071274 117.84482956 C-184.18318265 116.63185014 -183.47549634 115.41896184 -182.76766586 114.20615768 C-182.03726272 112.9428241 -181.30745279 111.67914738 -180.57821274 110.41514206 C-178.38018146 106.61066899 -176.1690888 102.81389898 -173.95516586 99.01865768 C-173.33818832 97.95985397 -172.72121078 96.90105026 -172.08553696 95.81016159 C-169.80824222 91.90413239 -167.52906605 87.99922072 -165.24520493 84.09702682 C-160.78757725 76.47342755 -156.39220179 68.81512854 -152.01766586 61.14365768 C-144.94691685 48.74427778 -137.8307524 36.37175316 -130.68612289 24.01475143 C-128.99063623 21.08005294 -127.29862167 18.14337875 -125.60750961 15.20615768 C-124.59843469 13.45613482 -123.58932247 11.70613345 -122.58016586 9.95615768 C-122.12150131 9.15814743 -121.66283676 8.36013718 -121.19027328 7.53794479 C-118.06860142 2.13209324 -118.06860142 2.13209324 -116.95516586 1.01865768 C-115.52038338 0.91097284 -114.08038563 0.87184753 -112.64161301 0.8604393 C-111.70992798 0.85065048 -110.77824295 0.84086166 -109.81832504 0.83077621 C-108.78735703 0.82502075 -107.75638901 0.81926529 -106.69417953 0.81333542 C-105.07428871 0.79848602 -105.07428871 0.79848602 -103.42167282 0.78333664 C-99.82218285 0.75155704 -96.22268013 0.72687176 -92.62313461 0.70225143 C-90.11656487 0.68166812 -87.60999848 0.6606713 -85.10343552 0.63927841 C-79.82641001 0.59521585 -74.54937463 0.55418636 -69.27230453 0.51597214 C-62.56058149 0.46736318 -55.84891247 0.41363491 -49.13724422 0.35799694 C-42.69505225 0.30466297 -36.25284615 0.25316179 -29.81063461 0.20225143 C-28.60313238 0.19269361 -27.39563015 0.1831358 -26.15153694 0.17328835 C-17.43440068 0.10546546 -8.71721807 0.05503688 0 0 Z " fill="#000000" transform="translate(524.9551658630371,120.98134231567383)"/>
<path d="M0 0 C1.2777832 0.0314209 2.55556641 0.0628418 3.87207031 0.09521484 C4.89569672 0.10794937 4.89569672 0.10794937 5.94000244 0.12094116 C8.11169911 0.15443177 10.27962915 0.22967993 12.45019531 0.30615234 C13.92540194 0.3362586 15.40066702 0.36363329 16.87597656 0.38818359 C20.48526575 0.45420149 24.09236273 0.55768317 27.70019531 0.68115234 C23.8762362 8.54522977 19.78826761 16.16330898 15.32519531 23.68115234 C14.0870653 25.78464204 12.85013525 27.88883839 11.61425781 29.99365234 C10.97391602 31.08419922 10.33357422 32.17474609 9.67382812 33.29833984 C6.64928076 38.48242301 3.6771453 43.69604704 0.70761108 48.91174316 C-4.81415016 58.61007756 -10.36848018 68.28860185 -15.98730469 77.93115234 C-16.83325195 79.38521484 -16.83325195 79.38521484 -17.69628906 80.86865234 C-20.80919506 86.1986099 -23.99982933 91.46486476 -27.29980469 96.68115234 C-31.31075581 95.27405557 -34.34655985 93.35522293 -37.73730469 90.80615234 C-41.53188453 87.98585652 -45.33402966 85.25354696 -49.29980469 82.68115234 C-48.6112342 79.0392473 -47.07248351 76.20538654 -45.27246094 72.98193359 C-44.3396228 71.30562866 -44.3396228 71.30562866 -43.38793945 69.59545898 C-42.71298214 68.39471381 -42.03776469 67.19411482 -41.36230469 65.99365234 C-40.66934422 64.75473416 -39.97655565 63.51571982 -39.28393555 62.27661133 C-35.3491803 55.25205488 -31.3553905 48.26556498 -27.2331543 41.34912109 C-24.53047155 36.80519057 -21.88872847 32.22843792 -19.27246094 27.63427734 C-18.91569778 27.00798935 -18.55893463 26.38170135 -18.19136047 25.73643494 C-16.40138688 22.59233815 -14.61469908 19.44641344 -12.83129883 16.29858398 C-12.16721004 15.13050253 -11.50306841 13.96245112 -10.83886719 12.79443359 C-9.96029053 11.24429565 -9.96029053 11.24429565 -9.06396484 9.6628418 C-8.48179199 8.67888428 -7.89961914 7.69492676 -7.29980469 6.68115234 C-6.71473145 5.57715088 -6.1296582 4.47314941 -5.52685547 3.33569336 C-3.29980469 0.68115234 -3.29980469 0.68115234 0 0 Z " fill="#000000" transform="translate(452.2998046875,216.31884765625)"/>
</svg>
